<?xml version="1.0" encoding="utf-8"?>
<svg width="155px" height="155px" viewbox="0 0 155 155" version="1.1" xmlns:xlink="http://www.w3.org/1999/xlink" xmlns="http://www.w3.org/2000/svg">
  <defs>
    <filter filterUnits="userSpaceOnUse" color-interpolation-filters="sRGB" id="filter_1">
      <feFlood flood-opacity="0" result="BackgroundImageFix" />
      <feBlend mode="normal" in="SourceGraphic" in2="BackgroundImageFix" result="shape" />
      <feGaussianBlur stdDeviation="0.5" result="effect0_gaussianBlur" />
    </filter>
  </defs>
  <g id="Group">
    <path d="M0 75C0 33.5786 33.5786 0 75 0C116.421 0 150 33.5786 150 75C150 116.421 116.421 150 75 150C33.5786 150 0 116.421 0 75Z" transform="translate(5 5)" id="Ellipse-3" fill="#1A15A0" fill-rule="evenodd" stroke="none" filter="url(#filter_1)" />
    <path d="M0 75C0 33.5786 33.5786 0 75 0C116.421 0 150 33.5786 150 75C150 116.421 116.421 150 75 150C33.5786 150 0 116.421 0 75Z" id="Ellipse-2" fill="#3E38CC" fill-rule="evenodd" stroke="none" />
    <g id="#d04a49ff" transform="translate(44.460938 8.918213)">
      <path d="M19.0015 7.06812C22.515 4.79408 25.6905 1.9669 29.46 0.0923608C30.9658 -0.368591 32.1233 1.01427 33.3628 1.62887C40.7585 6.8735 48.2055 12.0464 55.7241 17.1271C57.3119 18.2232 58.9406 19.3192 60.2312 20.784C60.4566 22.8635 58.0187 23.1093 56.6153 22.3718C54.7408 21.4396 53.1121 20.0977 51.3809 18.93C51.3092 28.231 51.4219 37.5423 51.3092 46.8433C46.5973 47.253 41.8648 47.1506 37.1528 47.1198C37.1528 45.8804 37.1528 44.6409 37.1528 43.4015C40.6458 43.2683 44.1491 43.2171 47.6421 43.2069C47.6216 34.1414 47.6728 25.0863 47.5909 16.0311C41.7214 12.1898 35.9748 8.17441 30.2488 4.14875C24.451 7.85686 18.8991 11.9235 13.1525 15.7136C13.173 24.9224 13.0911 34.121 13.1935 43.3298C16.707 43.34 20.2205 43.3298 23.734 43.3707C23.693 44.6204 23.6623 45.8701 23.6315 47.1301C18.9503 47.1608 14.2588 47.2223 9.59807 46.833C9.38296 37.3271 9.53661 27.811 9.4854 18.3051C7.31379 19.7904 5.24462 21.4908 2.82718 22.5766C1.83357 22.0645 0.891172 21.4703 0 20.7943C4.49686 16.533 9.91562 13.4702 14.9451 9.88506C14.9246 7.49834 14.9144 5.11163 14.9042 2.72492C16.1846 2.63273 17.4753 2.56102 18.7659 2.49956C18.8376 4.02583 18.9196 5.5521 19.0015 7.06812L19.0015 7.06812Z" id="Shape" fill="#D04A49" fill-rule="evenodd" stroke="none" />
      <path d="M0.0834809 0C1.12831 0.0717036 2.16289 0.153649 3.20772 0.235598C6.3422 2.69401 9.7635 0.204865 13.1131 0C19.1157 0.553141 24.7803 5.33682 25.7637 11.3907C23.674 9.84391 21.8917 7.89767 19.7508 6.42262C18.0299 5.72607 16.0939 6.1358 14.2808 6.02312C14.1784 11.0731 13.1438 16.4099 15.1413 21.2243C16.5241 24.7993 15.7764 28.7225 15.9198 32.4511C15.7149 38.1157 16.35 43.8315 15.6227 49.4654C14.3423 52.5692 10.7059 51.7599 8.37039 50.4181C7.9709 42.0287 8.21674 33.6291 8.14504 25.2295C7.94017 22.3921 9.79423 19.9644 9.88642 17.168C10.0298 14.0949 10.0401 11.0014 9.73277 7.9284C10.0503 6.16653 8.25772 5.99239 6.94656 6.09483C4.65204 6.50456 2.45995 7.33428 0.185913 7.81572C-0.0291972 5.2139 -0.0496884 2.60182 0.0834809 0L0.0834809 0Z" transform="translate(18.467346 18.008057)" id="Shape" fill="#D04A49" fill-rule="evenodd" stroke="none" />
    </g>
    <g id="#3b3b6aff" transform="translate(35.63623 83.649414)">
      <path d="M1.91523 0.475733C4.52623 -0.900246 8.64745 0.824759 8.0098 4.15395C7.73461 7.70464 2.49918 8.69803 0.660075 5.86553C-0.601799 4.12711 0.015711 1.46241 1.91523 0.475733L1.91523 0.475733Z" transform="translate(25.722412 0)" id="Shape" fill="#19D0C5" fill-rule="evenodd" stroke="none" />
      <path d="M6.89061 2.71345C10.2735 -0.702994 15.858 -0.562041 19.9926 1.31063C19.4221 2.93495 18.8247 4.55257 18.2273 6.17689C15.9855 4.98214 13.2738 4.86803 11.1796 6.43866C10.9246 8.02942 10.7501 9.63361 10.6225 11.2445C13.1261 11.2646 15.6365 11.2646 18.1401 11.2512C18.1535 12.9494 18.1602 14.6475 18.1602 16.3457C15.7573 16.3188 13.3543 16.3121 10.9514 16.3256C10.9044 23.6283 10.938 30.9378 10.9313 38.2472C8.75657 38.2539 6.58186 38.2539 4.40714 38.2472C4.33331 30.931 4.45413 23.6149 4.34002 16.2987C2.89692 16.3054 1.46054 16.3121 0.0174393 16.3121C-0.00269872 14.6341 -0.00269872 12.9494 0.0040148 11.2714C1.43369 11.2579 2.85665 11.2579 4.27961 11.2579C4.48097 8.27777 4.62193 4.94858 6.89061 2.71345L6.89061 2.71345Z" transform="translate(0 1.0847168)" id="Shape" fill="#19D0C5" fill-rule="evenodd" stroke="none" />
      <path d="M0 0.00461394C2.53717 -0.00880797 5.07433 0.0113275 7.6115 0.0113275C7.12152 8.01213 6.93358 16.0264 6.26908 24.0137C4.57092 24.0137 2.87277 23.9936 1.18132 23.9533C0.979968 15.9592 0.469844 7.97856 0 0.00461394L0 0.00461394Z" transform="translate(69.68884 3.4378662)" id="Shape" fill="#19D0C5" fill-rule="evenodd" stroke="none" />
      <path d="M0 0.00298549C2.10759 0.00298549 4.2219 -0.00372802 6.33621 0.00298549C6.34292 9.07101 6.36977 18.1323 6.3295 27.1936C4.2219 27.1802 2.11431 27.1869 0.00671352 27.2003C0.00671352 18.139 0.0134219 9.07101 0 0.00298549L0 0.00298549Z" transform="translate(26.590576 12.151855)" id="Shape" fill="#19D0C5" fill-rule="evenodd" stroke="none" />
      <path d="M0.469844 0.0834657C2.84592 0.150586 5.3361 -0.278987 7.63835 0.338523C10.0211 3.01664 11.9609 6.05721 14.1558 8.89642C16.4782 6.05721 18.4045 2.90254 20.8813 0.210992C23.1231 -0.111185 25.3985 0.0834657 27.6605 0.0767522C24.7139 3.96976 21.7337 7.82249 18.767 11.6887C18.4179 12.3464 17.3037 13.1854 18.0823 13.9439C21.3914 18.4142 24.8884 22.7502 28.1975 27.2271C25.8415 27.2405 23.4923 27.2405 21.1363 27.2674C19.2704 24.898 17.5387 22.4347 15.6727 20.0653L15.8808 20.0318C15.2431 19.3136 14.6189 18.5887 14.0081 17.8503C11.6052 20.8641 9.49088 24.106 6.99399 27.0325C4.69846 27.4956 2.32238 27.1734 0 27.1801C3.43658 22.5152 7.10809 18.0316 10.5111 13.3398C9.97415 12.6351 9.43047 11.9437 8.92035 11.2188C7.78601 9.74886 6.68523 8.24536 5.55089 6.77541C3.84602 4.55371 2.168 2.30516 0.469844 0.0834657L0.469844 0.0834657Z" transform="translate(37.625244 12.098145)" id="Shape" fill="#19D0C5" fill-rule="evenodd" stroke="none" />
      <path d="M0.195353 3.04057C0.645061 1.15448 2.68554 0.671208 4.2226 0C5.55831 0.684635 7.29003 1.12092 7.85384 2.70497C9.03516 5.15488 6.91415 8.23572 4.23603 8.17532C1.6116 8.36996 -0.697356 5.57774 0.195353 3.04057L0.195353 3.04057Z" transform="translate(69.38611 31.465454)" id="Shape" fill="#19D0C5" fill-rule="evenodd" stroke="none" />
    </g>
  </g>
</svg>