<?xml version="1.0" encoding="utf-8"?>
<svg width="1090px" height="1023px" viewbox="0 0 1090 1023" version="1.1" xmlns:xlink="http://www.w3.org/1999/xlink" xmlns="http://www.w3.org/2000/svg">
  <defs>
    <linearGradient x1="0.99984556" y1="0.18277778" x2="1.5239703E-09" y2="0.18444444" id="gradient_1">
      <stop offset="0" stop-color="#39D3B0" />
      <stop offset="0.18019399" stop-color="#39D3B0" />
      <stop offset="1" stop-color="#3E2CCE" />
    </linearGradient>
  </defs>
  <g id="Group">
    <path d="M1088.5 0L111.989 0C45.6696 95.7462 -2.34405 149.958 0.0884432 179.495C2.52093 209.032 0.0884933 212.44 44.3942 249.361L924.339 1022.44L1088.5 1022.44L1088.5 0L1088.5 0Z" id="Shape" fill="url(#gradient_1)" fill-rule="evenodd" stroke="none" />
    <path d="M167.339 1.07612C177.492 -3.85697 188.714 8.62328 199.501 29.2372C192.173 56.5084 197.689 76.9921 197.331 106.842C196.674 161.487 199.611 218.903 199.501 221.071C188.651 228.284 195.456 236.123 190.117 247.143C181.597 243.451 173.019 239.929 164.329 236.805C158.081 231.295 151.605 226.069 144.959 221.071C136.325 204.2 119.171 189.545 126.328 168.869C123.204 168.245 117.069 167.109 114.002 166.484C115.706 163.076 119.057 156.259 120.761 152.851C127.691 145.978 144.278 152.851 137.348 164.439C138.54 164.496 140.926 164.553 142.119 164.553C146.72 149.216 129.623 130.869 115.365 143.252C104.005 144.104 111.73 125.359 107.64 118.94C84.2377 105.194 52.9964 92.7548 27.2082 106.842C19.6535 98.5484 9.94038 93.0388 0 88.097C19.1424 87.7562 30.7868 71.7948 47.2594 64.8649C47.4298 61.2864 47.7706 54.0725 47.9411 50.494C54.0757 49.6419 60.2671 48.7899 66.4585 47.9947C76.9669 22.2633 107.583 27.7163 128.884 34.0782C145.243 38.7359 142.517 17.6055 146.209 7.89238C151.435 10.6757 156.717 13.459 162.057 16.1855C163.363 12.4366 166.033 4.88187 167.339 1.07612L167.339 1.07612Z" transform="translate(890.43 16.5065)" id="Shape" fill="#FFFFFF" fill-opacity="0.2" fill-rule="evenodd" stroke="none" />
    <path d="M0.28401 0C12.7805 1.87447 29.0259 -3.23772 38.0006 8.17951C43.6808 13.5189 38.6822 19.8239 36.0125 25.2768C39.7615 26.1857 47.1457 28.0033 50.8947 28.9122C50.6674 31.4115 50.3266 36.4101 50.1563 38.9093C47.373 39.3638 41.6927 40.3862 38.9094 40.8406C27.3218 29.7642 15.0526 37.3189 5.68021 46.748C5.85064 40.8974 6.02101 35.1036 6.19144 29.253C14.7118 25.9017 31.1844 32.4339 32.6044 19.7671C29.3099 5.90743 10.3948 13.3485 0 10.1676C0.0567882 7.61149 0.227222 2.5561 0.28401 0L0.28401 0Z" transform="translate(657.4845 89.89176)" id="Shape" fill="#FFFFFF" fill-opacity="0.2" fill-rule="evenodd" stroke="none" />
    <path d="M5.05533 7.9523C10.3947 5.2826 15.7909 2.6129 21.1871 0C22.096 3.52174 23.8569 10.6788 24.7089 14.2005C16.2454 14.4845 7.78186 15.0526 0 18.6879C1.30641 16.0182 3.80571 10.622 5.05533 7.9523L5.05533 7.9523Z" transform="translate(598.29675 93.129456)" id="Shape" fill="#FFFFFF" fill-opacity="0.2" fill-rule="evenodd" stroke="none" />
    <path d="M0 0C22.2664 1.24964 40.3295 14.0869 58.5062 25.3336C81.7951 26.0153 105.879 22.8911 128.259 31.1842C106.106 39.0797 81.5678 33.8539 58.4494 34.3084C38.9095 23.2888 15.8478 16.5293 0 0L0 0Z" transform="translate(710.0265 99.1505)" id="Shape" fill="#FFFFFF" fill-opacity="0.2" fill-rule="evenodd" stroke="none" />
    <path d="M325.647 17.3998C338.03 7.57311 352.571 -0.435985 368.816 0.0184251C382.278 9.56107 398.865 12.5148 413.52 19.6719C417.553 15.4117 421.586 11.1515 425.619 6.89149C432.776 12.458 440.955 15.0709 450.1 14.6733C449.362 19.4447 447.885 28.9874 447.147 33.7588C433.173 32.0547 419.086 30.6915 405.397 34.8948C394.32 31.6003 383.187 18.0246 371.77 27.8514C384.721 47.3345 409.998 40.6318 429.651 43.188C431.412 47.6754 433.23 52.1059 435.048 56.5365C434.934 51.2538 434.764 40.7454 434.65 35.4629C441.126 36.5989 447.601 37.6213 454.133 38.5869C453.565 57.6725 469.754 63.8071 485.374 67.8969C476.854 81.643 451.009 70.6234 451.52 90.3906C469.754 90.5042 487.931 90.8451 506.164 90.8451C504.801 83.5175 503.267 76.2468 501.733 68.9761C517.865 68.4649 516.161 83.9719 518.32 95.3892C524.398 92.2651 530.362 89.0274 536.326 85.676C533.145 70.7938 530.021 55.4572 519.967 43.472C529.226 32.0547 545.414 29.0442 552.572 44.8921C546.266 44.4376 533.599 43.5288 527.294 43.0743C537.803 54.3212 547.459 66.2496 557.854 77.6101C567.226 78.3485 576.031 81.1886 582.336 88.6298C588.129 83.2903 593.639 77.6669 599.036 71.8731C586.766 68.8057 574.383 66.2496 562.171 63.1255C561.319 57.1045 560.524 51.0835 559.785 45.0624C562.853 43.0175 568.987 38.9846 572.054 36.9397C577.791 36.5989 583.585 36.3149 589.379 36.0309C586.709 44.4376 588.414 51.7083 594.492 57.8998C596.366 53.6396 600.115 45.0057 602.046 40.7454C617.723 40.4046 633.173 37.0533 648.794 36.5989C671.458 49.0954 695.088 59.4333 720.592 64.6592C722.58 70.7938 724.511 76.9284 726.556 83.063C742.518 84.7103 756.094 93.6852 769.158 102.319C764.102 106.806 758.99 111.237 753.822 115.554C744.051 110.101 734.509 102.773 722.637 103.001C730.93 114.702 741.268 124.869 748.709 137.195C745.642 136.343 739.621 134.639 736.611 133.787C715.821 144.466 697.303 125.04 677.706 120.325C666.062 119.644 654.417 120.78 642.83 120.78C645.272 107.318 655.781 105.614 667.823 107.261C674.753 99.3086 681.853 91.4699 687.647 82.5518C675.434 84.2559 665.835 91.8107 655.497 97.7181C658.337 91.1291 661.234 84.5399 664.188 78.0077C657.428 75.5652 650.782 73.1227 644.08 70.6234C635.389 72.5547 626.698 74.4291 618.064 76.474C621.359 82.8927 624.54 89.3114 627.777 95.7869C620.507 97.1501 613.349 99.0814 606.022 99.763C602.784 98.9678 596.423 97.4341 593.242 96.6389C595.798 116.917 623.915 108.17 632.265 125.608C624.028 130.72 615.224 134.753 606.817 139.411C611.589 133.106 616.19 126.63 620.393 119.928C611.418 121.348 602.841 124.017 594.15 126.46C590.856 115.497 583.472 111.805 575.803 121.064C552.912 122.768 540.189 143.16 525.59 157.985C544.335 189.226 584.551 190.249 616.246 199.564C616.871 202.12 618.234 207.233 618.916 209.789C625.676 217.968 630.731 227.511 638.456 234.895C649.476 222.399 639.819 206.494 635.673 193.316C640.558 195.475 645.499 197.633 650.441 199.848C662.54 188.999 656.349 177.582 646.806 167.641C648.624 157.701 650.157 147.704 651.691 137.707C671.97 134.923 691.282 141.569 709.459 150.033C710.254 153.782 711.901 161.28 712.753 165.028C715.65 167.187 721.558 171.39 724.511 173.492C730.476 166.619 736.213 159.519 741.723 152.248C753.14 164.688 762.626 178.718 772.68 192.237C784.154 193.259 791.765 200.814 797.161 210.3C800.172 212.686 806.193 217.457 809.26 219.843C805.057 226.716 800.456 233.362 795.855 240.007C809.147 246.88 824.483 252.731 828.971 268.749C813.464 268.806 797.957 267.557 782.45 266.818C788.641 254.662 794.946 242.507 799.661 229.726C783.87 237.622 768.647 246.71 754.56 257.389C752.97 253.64 749.788 246.199 748.141 242.45C736.951 242.734 726.329 245.801 718.15 253.754C716.9 256.083 714.401 260.683 713.094 262.956C722.637 259.831 732.123 256.821 741.723 253.924C743.767 262.558 744.619 272.441 752.515 278.179C761.263 281.587 779.78 274.032 778.246 289.084C763.478 295.56 747.63 299.082 733.316 306.579C732.634 302.774 731.214 295.219 730.533 291.413C721.444 294.935 712.128 297.832 703.381 301.978C701.62 309.987 701.336 318.167 702.529 326.631C695.542 325.892 688.669 325.097 681.739 324.188C676.627 336.628 671.174 349.749 660.098 358.156C661.064 361.905 662.995 369.346 663.96 373.095C649.248 386.444 634.934 400.303 618.916 412.004C627.493 429.727 634.821 448.983 630.333 468.977C620.734 458.014 611.191 446.37 610.055 431.147C597.616 423.763 583.983 419.389 569.385 421.547C567.283 424.16 563.023 429.329 560.864 431.942C541.665 422.57 522.125 430.465 509.856 446.483C510.595 466.535 500.597 487.892 510.935 506.75C515.536 514.533 522.296 520.667 528.601 527.086C537.746 525.041 546.948 523.28 556.206 521.803C556.093 514.816 556.093 507.83 556.093 500.9C566.09 500.672 576.087 500.786 586.141 501.241C580.347 517.543 574.781 534.015 573.19 551.397C584.04 551.397 594.832 551.056 605.681 550.715C609.657 559.463 612.27 568.665 609.033 578.264C605.17 590.704 611.816 602.405 615.622 613.936C624.085 610.755 632.378 607.12 640.444 603.03C645.386 606.949 650.327 610.869 655.326 614.844C666.289 601.326 678.331 588.715 692.418 578.378C692.418 588.148 692.532 597.861 692.589 607.631C697.133 600.474 701.507 593.203 706.448 586.273C710.936 589.113 715.026 592.408 719.342 595.532C730.419 597.633 741.495 598.372 751.265 591.613C754.673 594.225 761.433 599.451 764.841 602.064C767.397 598.883 772.452 592.408 775.008 589.227C772.793 597.122 770.464 605.018 768.022 612.913C788.641 617.06 794.321 647.392 818.235 638.133C832.833 650.46 843.853 666.307 852.884 683.007C846.863 686.131 840.842 689.142 834.821 692.096C834.935 694.539 835.105 699.424 835.162 701.866C837.093 700.276 840.899 696.981 842.773 695.334C848.113 693.516 853.452 691.699 858.792 689.938C855.951 697.493 853.111 705.047 850.101 712.545C851.294 712.545 853.679 712.545 854.872 712.545C851.635 695.05 872.765 694.084 882.592 702.945C885.034 708.53 883.173 746.978 882.592 788.743C881.944 835.34 884.869 884.637 882.592 890.419C863.563 894.452 872.879 903.483 858.792 917.115C844.595 915.925 821.892 916.246 782.45 917.115C744.333 917.955 704.871 914.669 706.448 903.483C709.221 883.819 706.019 876.639 704.176 856.709C696.338 835.351 665.664 833.59 660.723 810.642C648.34 785.99 643.625 757.191 623.915 736.856C628.402 724.133 634.934 710.898 625.391 698.572C634.65 685.165 648.908 674.089 651.464 657.106C658.507 640.065 646.124 624.671 638.854 610.244C635.9 614.731 629.992 623.706 627.039 628.193C613.974 619.502 602.103 609.221 590.629 598.542C588.754 592.18 586.823 585.875 584.949 579.514C582.847 578.264 578.587 575.822 576.428 574.572C557.059 572.925 542.006 561.167 530.93 545.887C525.59 548.898 520.251 551.908 514.855 554.919C491.282 542.081 468.958 526.972 448.169 509.988C448.623 505.614 449.532 496.867 449.987 492.493C432.946 474.941 422.665 451.482 403.466 436.089C396.99 425.921 393.355 413.822 384.153 405.529C382.278 421.945 397.331 431.033 403.409 444.495C410.509 460.4 419.598 475.282 426.3 491.357C407.271 482.667 404.09 457.56 383.983 450.914C384.494 447.506 385.573 440.69 386.084 437.281C373.076 424.558 370.066 405.529 358.762 391.897C341.381 378.946 329.339 360.599 319.228 341.74C307.356 315.895 327.919 281.019 307.356 259.377C309.799 255.628 312.298 251.936 314.741 248.244C317.865 253.413 324.17 263.751 327.294 268.92C337.007 255.401 319.455 250.629 311.162 243.643C311.332 243.245 311.787 242.336 312.014 241.939C306.675 244.892 301.506 248.13 295.882 250.516C277.535 244.779 293.156 218.536 272.196 216.037C270.378 211.209 268.504 206.324 266.572 201.496C266.8 208.539 267.197 222.683 267.425 229.783C245.328 223.308 258.847 193.543 237.717 187.75C230.617 183.489 229.424 174.06 224.255 167.982C200.739 157.815 175.178 153.554 150.412 147.363C140.812 153.838 130.986 159.86 121.159 165.994C120.08 161.961 117.921 153.895 116.785 149.862C110.537 159.575 105.254 169.97 112.411 181.047C106.277 193.203 96.2228 189.283 87.1345 183.035C68.2762 195.759 46.521 205.074 23.8001 207.744C40.9543 194.452 61.5735 186.784 78.8982 173.719C68.5602 170.481 58.1654 167.357 47.6002 164.972C46.2938 161.734 43.7377 155.145 42.488 151.907C38.2846 155.599 34.1949 159.462 30.2187 163.438C24.8225 156.054 19.4831 148.613 14.1437 141.172C19.7103 136.173 25.277 131.118 30.8436 126.005C37.1486 126.46 43.4536 126.858 49.7587 127.198C50.0427 123.961 50.5539 117.428 50.8379 114.191C34.1381 124.642 15.507 121.688 0 110.669C7.83869 105.784 16.0182 101.467 24.4249 97.4341C33.8541 103.001 43.9649 108.227 55.1549 103.853C43.4536 92.7195 28.0034 87.6073 12.8941 83.1199C24.8225 78.9733 36.1262 73.4635 46.6914 66.5904C59.1878 65.1136 71.1731 61.3079 80.7727 52.9011C90.997 56.8773 101.449 60.399 111.503 64.9432C149.503 64.5456 190.06 64.2615 225.277 79.8822C229.765 76.474 234.195 73.1227 238.626 69.7146C256.291 71.8162 273.673 67.3289 291.281 66.8745C293.383 68.2377 297.587 71.021 299.688 72.3843C307.016 69.885 314.343 67.4425 321.727 65C321.671 56.082 310.481 54.5484 305.198 49.4362C310.026 43.1312 314.741 36.8261 319.512 30.5211C335.019 28.1354 369.555 38.871 368.305 13.9916C354.275 16.7749 340.018 19.6151 325.647 17.3998L325.647 17.3998ZM332.69 65.7952C345.073 72.5546 358.478 78.5756 372.792 79.3709C367.453 69.3169 361.148 59.8309 354.048 50.913C347.572 55.7412 328.373 54.3211 332.69 65.7952L332.69 65.7952ZM557.172 258.582C557.115 260.797 557.002 265.284 557.002 267.499C572.793 262.501 589.379 264.659 605.624 262.501C598.581 255.628 592.333 246.085 581.995 244.211C573.361 248.414 565.408 253.753 557.172 258.582L557.172 258.582ZM579.779 279.314C580.006 292.208 579.893 305.102 580.006 318.053C582.96 318.394 588.811 319.076 591.708 319.417C591.764 310.839 591.083 302.206 591.992 293.628C595.457 287.891 602.898 284.427 603.863 277.497C597.388 266.875 587.788 275.849 579.779 279.314L579.779 279.314ZM610.85 277.156C612.1 291.64 616.814 305.5 622.949 318.621L615.735 325.21C632.321 320.95 644.534 308.056 659.359 300.331C659.529 298.116 659.757 293.685 659.927 291.47C656.348 291.356 649.305 291.129 645.783 290.959C640.898 297.718 636.07 304.534 631.412 311.464C628.061 303.171 625.278 294.594 622.665 286.017C627.039 285.506 635.786 284.483 640.16 283.972C631.81 281.53 614.997 265.114 610.85 277.156L610.85 277.156Z" transform="translate(204.03325 105.323494)" id="Shape" fill="#FFFFFF" fill-opacity="0.2" fill-rule="evenodd" stroke="none" />
    <path d="M0.744141 0.888357C8.52607 -1.61093 11.2525 1.17237 8.98045 9.12467C1.25537 11.6808 -1.47109 8.95426 0.744141 0.888357L0.744141 0.888357Z" transform="translate(724.4485 123.82298)" id="Shape" fill="#FFFFFF" fill-opacity="0.2" fill-rule="evenodd" stroke="none" />
    <path d="M0 12.2124C7.2707 1.30644 22.3233 3.97615 33.3429 0C36.8078 3.40813 40.3295 6.81625 43.8513 10.2244C40.0455 15.4502 36.2966 20.7896 32.0932 25.6746C27.6058 21.9824 23.2889 18.0631 19.2559 13.9165C14.4277 13.4621 4.82818 12.6669 0 12.2124L0 12.2124Z" transform="translate(673.16205 140.38873)" id="Shape" fill="#FFFFFF" fill-opacity="0.2" fill-rule="evenodd" stroke="none" />
    <path d="M0 2.33981C15.507 -8.22539 2.15847 21.539 0 2.33981L0 2.33981L0 2.33981Z" transform="translate(212.43996 261.5935)" id="Shape" fill="#FFFFFF" fill-opacity="0.2" fill-rule="evenodd" stroke="none" />
    <path d="M13.0402 0C26.2751 3.80571 10.0296 24.1409 0.998111 16.1318C-3.03484 8.69072 5.99669 0.62481 13.0402 0L13.0402 0Z" transform="translate(201.84229 315.11203)" id="Shape" fill="#FFFFFF" fill-opacity="0.2" fill-rule="evenodd" stroke="none" />
    <path d="M5.79382 0C13.8029 1.13604 21.812 2.38566 29.7075 4.14654C20.2216 8.00907 10.054 8.46348 0 8.63388C1.42005 6.47541 4.37377 2.15847 5.79382 0L5.79382 0Z" transform="translate(152.22968 327.6085)" id="Shape" fill="#FFFFFF" fill-opacity="0.2" fill-rule="evenodd" stroke="none" />
    <path d="M0 9.01554C8.52032 3.1081 20.4488 -3.93538 30.5595 2.65366C41.5791 9.92436 53.4508 15.8318 66.3448 19.1831C66.1745 22.1368 65.8337 27.9306 65.72 30.8275C53.5644 25.545 43.3968 16.7974 31.4684 11.2876C20.96 10.0947 10.4516 10.0379 0 9.01554L0 9.01554Z" transform="translate(805.68134 590.0503)" id="Shape" fill="#FFFFFF" fill-opacity="0.2" fill-rule="evenodd" stroke="none" />
    <path d="M0 11.6726C7.49785 7.29879 14.3141 -1.61913 23.9705 0.255305C33.2292 0.425739 37.2054 10.0253 42.6584 16.0463C28.1738 18.8297 13.8029 16.0463 0 11.6726L0 11.6726Z" transform="translate(880.1488 618.6344)" id="Shape" fill="#FFFFFF" fill-opacity="0.2" fill-rule="evenodd" stroke="none" />
    <path d="M6.35522 13.6325C-2.05152 9.20191 -2.10831 4.65775 6.128 0C14.6483 4.60096 14.7051 9.14513 6.35522 13.6325L6.35522 13.6325Z" transform="translate(849.5959 635.1352)" id="Shape" fill="#FFFFFF" fill-opacity="0.2" fill-rule="evenodd" stroke="none" />
  </g>
</svg>